<?xml version="1.0" standalone="no"?><!DOCTYPE svg PUBLIC "-//W3C//DTD SVG 1.1//EN" "http://www.w3.org/Graphics/SVG/1.1/DTD/svg11.dtd"><svg t="1503527421695" class="icon" style="" viewBox="0 0 1024 1024" version="1.1" xmlns="http://www.w3.org/2000/svg" p-id="3783" xmlns:xlink="http://www.w3.org/1999/xlink" width="200" height="200"><defs><style type="text/css"></style></defs><path d="M406.6 575.2C332.1 529.8 289 466 286.4 378.1c-1.8-61.6 19.1-115 61.5-159.4 93.1-97.5 241.5-94.9 332.6 3.5 96.5 104.4 69.9 285.3-62.2 353.2 6.4 2.8 12.2 5.4 18 7.9 91.2 39.2 154.2 105.4 187.2 199.2 7.5 21.3 10.6 44.2 15.4 66.5 0.8 3.8 0.2 8.2-0.7 12.1-2.4 9.7-9.3 14.7-18.6 14.4-9.9-0.3-17.1-6.3-19.1-16-3.8-18.1-5.9-36.8-11.7-54.2-37.1-110.4-111.4-180.4-226.9-201-98.9-17.7-184.9 11-256 82.3-46.1 46.2-72.1 102.6-80.6 167.2-1.6 12.2-6.5 19.1-15.5 21.3-13.6 3.3-25.2-7-23.9-21.3 4.9-51.8 21.6-99.5 49.8-143 38.2-59 90-101.7 155-128.4 4.2-1.7 8.3-3.6 12.4-5.4 0.6-0.3 1.4-0.7 3.5-1.8z m105.7-14.9c102.2 0 184.5-82.3 186-182.5C700 268.7 613.4 189.7 517 187.2c-100.9-2.6-189.2 77.9-190.9 183.6-1.6 103.6 81.2 189.5 186.2 189.5z" p-id="3784"></path></svg>